<?xml version="1.0" standalone="no"?><!DOCTYPE svg PUBLIC "-//W3C//DTD SVG 1.1//EN" "http://www.w3.org/Graphics/SVG/1.1/DTD/svg11.dtd"><svg t="1573554680152" class="icon" viewBox="0 0 1024 1024" version="1.1" xmlns="http://www.w3.org/2000/svg" p-id="2126" xmlns:xlink="http://www.w3.org/1999/xlink" width="200" height="200"><defs><style type="text/css"></style></defs><path d="M515.6 133.7c-139.4 0-253 113.6-253.1 253 0 50.9 18.4 96.2 40.8 137.9 7.9 14.6 212.3 363.3 212.3 363.3S721.1 538.2 727.7 525c21.1-42.5 41-87.2 41-138.2 0-139.8-113.3-253.1-253.1-253.1z m0 344.5c-50.6 0-91.7-41-91.7-91.7s41-91.7 91.7-91.7c50.6 0 91.7 41 91.7 91.7s-41.1 91.7-91.7 91.7z" fill="#263554" p-id="2127"></path></svg>