<?xml version="1.0" standalone="no"?><!DOCTYPE svg PUBLIC "-//W3C//DTD SVG 1.1//EN" "http://www.w3.org/Graphics/SVG/1.1/DTD/svg11.dtd"><svg t="1577700770779" class="icon" viewBox="0 0 1024 1024" version="1.1" xmlns="http://www.w3.org/2000/svg" p-id="1569" xmlns:xlink="http://www.w3.org/1999/xlink" width="200" height="200"><defs><style type="text/css"></style></defs><path d="M505.62548509 33.08003783c46.39250091 0 89.97788558 8.8032347 130.77827697 26.38059748 40.77943467 17.58900565 76.13791118 41.35576007 106.07542955 71.28163555 30.67684637 30.69431011 54.81035435 66.22743097 72.40401692 106.64011207 17.57270471 40.4126811 26.38059747 83.82225749 26.38059748 130.2147584 0 62.8567973-17.59366258 130.77245611-52.76002987 203.73766258-35.18383218 72.96404253-73.72083427 140.50829085-115.62497707 202.61295332-41.91927865 62.12911218-97.66106909 134.3375269-167.25564188 216.6520229-69.59806578-82.314496-125.35266304-154.52291072-167.26029881-216.6520229-41.91927865-62.10466247-80.45162382-129.64891079-115.61799111-202.61295332-35.18383218-72.96404253-52.76119495-140.87970133-52.76119495-203.73766258 0-46.39250091 8.7869349-89.8020773 26.38059747-130.2147584 17.57154077-40.4126811 41.70504875-75.94580195 72.39819492-106.64011207 29.92820451-29.92704057 65.28668103-53.69379499 106.08125042-71.28163555C415.63129856 41.88327253 459.21202631 33.08003783 505.62548509 33.08003783L505.62548509 33.08003783zM505.62548509 487.70349056c16.45498254 0 31.99366371-3.17270357 46.58926705-9.54139762 14.59094528-6.35355819 27.11410347-14.7667547 37.60090909-25.25705216 11.22496853-11.22496853 20.0177243-24.13467193 26.38059747-38.73027527 6.35239424-14.58978133 9.5425627-30.11332779 9.54256271-46.58344505 0-16.44916053-3.19016846-31.99366371-9.54256271-46.58344505-6.36287203-14.59676729-15.15562894-27.11643136-26.38059747-37.605566-10.48564167-11.22496853-23.00879872-19.81979421-37.60090909-25.8170789-14.59560334-5.98447673-30.13428451-8.98370105-46.58926705-8.98370105-16.46429639 0-31.98784171 2.99922432-46.58344506 8.98370105-14.59094528 5.99728355-27.13156722 14.59094528-37.605566 25.8170789-11.22496853 10.49029859-20.02703929 23.01462073-26.37477547 37.605566-6.36869405 14.59560334-9.5425627 30.13428451-9.5425627 46.58344505 0 16.47011726 3.17386866 31.99366371 9.5425627 46.58344505 6.34773618 14.59560334 15.14980693 27.50530674 26.37477547 38.73027527 10.47399879 10.49029859 23.01462073 18.90931598 37.605566 25.25705216C473.63182137 484.53078699 489.16118869 487.70349056 505.62548509 487.70349056L505.62548509 487.70349056zM505.62548509 487.70349056" fill="#3f87f1" p-id="1570"></path></svg>