<?xml version="1.0" standalone="no"?><!DOCTYPE svg PUBLIC "-//W3C//DTD SVG 1.1//EN" "http://www.w3.org/Graphics/SVG/1.1/DTD/svg11.dtd"><svg t="1573616678129" class="icon" viewBox="0 0 1024 1024" version="1.1" xmlns="http://www.w3.org/2000/svg" p-id="3026" xmlns:xlink="http://www.w3.org/1999/xlink" width="200" height="200"><defs><style type="text/css"></style></defs><path d="M535.8 227.5c-123.9 0-222.1 101.3-222.1 229 0 44 12.8 79.3 29.9 114.5 0 4.4 170.9 264.2 170.9 264.2 4.3 4.4 12.8 8.8 21.4 8.8 8.5 0 17.1-4.4 21.4-8.8l170.9-259.8c21.4-35.2 34.2-74.9 34.2-118.9-0.2-127.8-102.7-229-226.6-229z" fill="#25B195" p-id="3027"></path><path d="M510.9 902.5c-14.5 0-30.2-6.4-40.1-16.2l-1.4-1.4-1.1-1.6c-0.5-0.8-51.8-76.4-102.4-151.7-29.8-44.3-53.5-79.8-70.5-105.5-10.1-15.3-18-27.4-23.4-35.7-5.7-9-8.9-13.9-10.5-17.8-19.5-39.2-37.4-83.4-37.4-141 0-77.3 29.6-149.5 83.4-203.3s126-83.4 203.3-83.4c39.1 0 77 7.5 112.9 22.3 34.7 14.3 66 34.8 92.8 61 55.6 54.1 86.2 126.4 86.2 203.5 0 52.1-14.8 102.3-44.1 149.1l-0.4 0.6-205.9 303.5-1.4 1.4c-9.8 9.8-25.6 16.2-40 16.2zM500.7 858c2.1 1.5 6.3 3.4 10.1 3.4s8-1.9 10.1-3.4L724 558.4c25-40.1 37.6-82.8 37.6-127.1 0-135.5-112.5-245.7-250.9-245.7-137.8 0-245.7 107.9-245.7 245.7 0 49.7 16.2 89 33.7 124l1.1 2.3c12.9 22 125.5 189.1 200.9 300.4z" fill="#666767" p-id="3028"></path><path d="M514.5 631.5C408.4 631.5 322 545.1 322 439s86.4-192.5 192.5-192.5S707 332.9 707 439s-86.4 192.5-192.5 192.5z m0-344C431 287.5 363 355.5 363 439s68 151.5 151.5 151.5S666 522.5 666 439s-68-151.5-151.5-151.5z" fill="#595857" p-id="3029"></path></svg>